<?xml version="1.0" encoding="iso-8859-1"?>
<!-- Generator: Adobe Illustrator 27.0.0, SVG Export Plug-In . SVG Version: 6.00 Build 0)  -->
<svg version="1.1" id="Layer_3" xmlns="http://www.w3.org/2000/svg" xmlns:xlink="http://www.w3.org/1999/xlink" x="0px" y="0px"
	 viewBox="0 0 250 76" style="enable-background:new 0 0 250 76;" xml:space="preserve">
<g>
	<path id="Background" style="fill:#FFFFFF;" d="M62.863,68.379H17.894c-4.353,0-7.894-3.541-7.894-7.894V15.516
		c0-4.353,3.541-7.894,7.894-7.894h44.969c4.353,0,7.894,3.541,7.894,7.894v44.969C70.757,64.837,67.216,68.379,62.863,68.379z"/>
	<path id="Border" style="fill:#8400D1;" d="M62.863,67.746H17.894c-4.004,0-7.262-3.258-7.262-7.262V15.516
		c0-4.004,3.257-7.262,7.262-7.262h44.969c4.004,0,7.262,3.257,7.262,7.262v44.969C70.125,64.488,66.867,67.746,62.863,67.746z
		 M62.863,9.52H17.895c-3.331,0-5.996,2.665-5.996,5.996v44.968c0,3.331,2.665,5.996,5.996,5.996h44.968
		c3.264,0,5.996-2.665,5.996-5.996V15.516C68.859,12.185,66.194,9.52,62.863,9.52"/>
	<g>
		<path style="fill:#8400D1;" d="M52.205,16.053L41.073,35.959c-0.23,0.411-0.82,0.413-1.054,0.004L28.666,16.054
			c-0.254-0.446,0.127-0.986,0.632-0.895l11.144,1.992c0.071,0.013,0.144,0.013,0.215,0l10.911-1.989
			C52.072,15.07,52.455,15.606,52.205,16.053z"/>
		<path style="fill:#FFA800;" d="M45.751,12.546l-8.238,1.614c-0.135,0.027-0.236,0.141-0.244,0.279l-0.507,8.559
			c-0.01,0.167,0.117,0.31,0.284,0.32c0.029,0.002,0.058-0.001,0.086-0.007l2.294-0.529c0.215-0.05,0.409,0.14,0.364,0.355
			l-0.681,3.337c-0.046,0.225,0.165,0.417,0.384,0.35l1.417-0.43c0.22-0.067,0.431,0.126,0.384,0.351l-1.083,5.242
			c-0.068,0.328,0.368,0.507,0.55,0.226l0.122-0.188l6.713-13.397c0.112-0.224-0.081-0.48-0.328-0.432l-2.361,0.456
			c-0.222,0.043-0.411-0.164-0.348-0.381l1.541-5.342C46.163,12.71,45.973,12.503,45.751,12.546L45.751,12.546z"/>
		<path style="fill:#8400D1;" d="M23.059,42.281l5.558,15.545l5.5-15.545h4.198l-8.019,20.553h-3.358l-8.076-20.553H23.059z
			 M57.276,62.834V49.229L51.978,59.36h-2.171L44.51,49.229v13.605h-3.995V42.281h4.284l6.079,11.695l6.137-11.695h4.255v20.553
			H57.276z"/>
	</g>
</g>
<g>
	<path style="fill:#FFFFFF;stroke:#FFFFFF;stroke-linecap:round;stroke-linejoin:round;stroke-miterlimit:10;" d="M136.321,10.708
		l4.146,11.594l4.102-11.594h3.13l-5.981,15.329h-2.504l-6.023-15.329H136.321z M149.341,26.037V10.708h2.979v15.329H149.341z
		 M166.98,13.32h-4.901v12.717h-2.958V13.32h-4.901v-2.612h12.761V13.32z M179.522,23.424v2.613h-10.643V10.708h10.449v2.612h-7.47
		v3.692h6.455v2.418h-6.455v3.994H179.522z M117.419,51.945V41.798l-3.951,7.556h-1.619l-3.951-7.556v10.147h-2.979V36.616h3.195
		l4.534,8.722l4.577-8.722h3.174v15.329H117.419z M127.955,36.616h2.634l5.828,15.329h-3.066l-1.424-3.821h-5.355l-1.404,3.821
		h-3.066L127.955,36.616z M131.386,46.03l-2.115-6.024l-2.202,6.024H131.386z M141.081,42.121v9.824h-2.979V36.616h2.31
		l7.988,10.061v-10.04h2.979v15.308h-2.418L141.081,42.121z M154.576,51.945V36.616h2.979v15.329H154.576z M160.75,51.945V36.616
		h10.298v2.612h-7.318v3.951h6.087v2.419h-6.087v6.347H160.75z M183.786,49.333v2.612h-10.643V36.616h10.449v2.612h-7.47v3.692
		h6.455v2.418h-6.455v3.994H183.786z M194.927,40.631c-0.101-0.099-0.285-0.236-0.551-0.41c-0.267-0.172-0.591-0.342-0.971-0.507
		c-0.382-0.166-0.795-0.306-1.242-0.421c-0.446-0.115-0.9-0.173-1.361-0.173c-0.82,0-1.432,0.152-1.835,0.454
		c-0.404,0.302-0.605,0.728-0.605,1.274c0,0.316,0.076,0.578,0.227,0.787c0.152,0.21,0.371,0.393,0.658,0.551
		c0.289,0.159,0.651,0.303,1.09,0.432c0.439,0.13,0.947,0.267,1.523,0.411c0.748,0.201,1.427,0.417,2.04,0.648
		c0.611,0.23,1.13,0.518,1.555,0.863c0.424,0.346,0.752,0.759,0.982,1.242c0.23,0.483,0.346,1.076,0.346,1.781
		c0,0.82-0.155,1.522-0.464,2.105c-0.309,0.582-0.726,1.054-1.251,1.414c-0.526,0.36-1.13,0.622-1.814,0.788
		c-0.684,0.165-1.401,0.247-2.149,0.247c-1.151,0-2.288-0.172-3.411-0.518c-1.123-0.346-2.129-0.834-3.022-1.469l1.317-2.568
		c0.13,0.13,0.363,0.298,0.701,0.507c0.338,0.209,0.738,0.418,1.199,0.626c0.46,0.21,0.971,0.386,1.533,0.53
		c0.561,0.143,1.136,0.216,1.727,0.216c1.641,0,2.462-0.525,2.462-1.576c0-0.331-0.095-0.611-0.281-0.842
		c-0.187-0.23-0.454-0.432-0.798-0.605c-0.346-0.172-0.764-0.331-1.253-0.475c-0.49-0.143-1.037-0.302-1.641-0.474
		c-0.735-0.201-1.371-0.422-1.911-0.658c-0.54-0.238-0.99-0.519-1.35-0.843c-0.36-0.324-0.629-0.697-0.809-1.123
		c-0.181-0.424-0.27-0.931-0.27-1.522c0-0.777,0.144-1.467,0.432-2.072s0.688-1.108,1.198-1.511
		c0.511-0.403,1.105-0.709,1.781-0.918c0.677-0.209,1.403-0.313,2.18-0.313c1.08,0,2.074,0.169,2.979,0.507
		c0.907,0.338,1.699,0.738,2.376,1.198L194.927,40.631z M210.386,39.228h-4.901v12.717h-2.958V39.228h-4.901v-2.612h12.761V39.228z"
		/>
	<path style="fill:#FFFFFF;stroke:#FFFFFF;stroke-linecap:round;stroke-linejoin:round;stroke-miterlimit:10;" d="M89.22,58.4
		h-2.666v6.828h-0.737V58.4h-2.666v-0.653h6.069V58.4z M93.15,57.8h0.695l1.054,2.656l1.064-2.656h0.706l-1.306,3.193l1.433,3.383
		l2.708-6.628h0.801l-3.172,7.481H96.48l-1.57-3.698l-1.58,3.698h-0.643l-3.161-7.481h0.79l2.719,6.628l1.422-3.383L93.15,57.8z
		 M101.358,65.228v-7.481h0.738v7.481H101.358z M109.377,64.133c-0.695,0.766-1.496,1.148-2.403,1.148
		c-0.506,0-0.971-0.108-1.396-0.326c-0.425-0.218-0.794-0.506-1.106-0.864c-0.313-0.358-0.557-0.764-0.732-1.217
		c-0.176-0.454-0.264-0.918-0.264-1.397c0-0.498,0.086-0.976,0.258-1.433c0.172-0.456,0.413-0.858,0.722-1.207
		c0.309-0.347,0.674-0.625,1.096-0.832c0.421-0.208,0.882-0.311,1.38-0.311c0.365,0,0.699,0.04,1.001,0.121
		c0.302,0.081,0.571,0.194,0.806,0.338c0.235,0.144,0.439,0.316,0.611,0.516c0.172,0.2,0.318,0.419,0.437,0.659l-0.569,0.379
		c-0.246-0.464-0.566-0.804-0.959-1.022c-0.394-0.218-0.84-0.327-1.338-0.327c-0.415,0-0.789,0.088-1.122,0.263
		c-0.334,0.176-0.618,0.41-0.853,0.701c-0.236,0.292-0.416,0.625-0.543,1.001c-0.126,0.376-0.19,0.764-0.19,1.164
		c0,0.421,0.072,0.821,0.216,1.201c0.144,0.379,0.343,0.711,0.596,0.996s0.55,0.511,0.891,0.679c0.34,0.169,0.711,0.253,1.111,0.253
		c0.428,0,0.838-0.099,1.228-0.3c0.39-0.2,0.764-0.518,1.122-0.954V62.12h-1.665v-0.569h2.287v3.678h-0.622V64.133z M119.229,64.575
		v0.653h-5.026v-7.481h4.932V58.4h-4.194v2.698h3.656v0.622h-3.656v2.856H119.229z M120.567,57.748l2.455,3.266l2.455-3.266h0.811
		l-2.877,3.793l2.792,3.688h-0.812l-2.371-3.161l-2.371,3.161h-0.833l2.792-3.688l-2.877-3.793H120.567z M132.59,58.4h-2.666v6.828
		h-0.737V58.4h-2.666v-0.653h6.069V58.4z M138.733,64.575v0.653h-5.026v-7.481h4.932V58.4h-4.194v2.698h3.656v0.622h-3.656v2.856
		H138.733z M140.861,59.117v6.111h-0.738v-7.481h0.569l4.953,6.227v-6.217h0.737v7.471h-0.643L140.861,59.117z M152.63,59.149
		c-0.211-0.239-0.491-0.432-0.843-0.58s-0.752-0.221-1.201-0.221c-0.66,0-1.141,0.124-1.443,0.374
		c-0.302,0.25-0.454,0.588-0.454,1.017c0,0.225,0.04,0.409,0.122,0.553c0.081,0.144,0.205,0.268,0.374,0.374
		c0.169,0.105,0.384,0.197,0.648,0.274c0.263,0.077,0.574,0.154,0.932,0.232c0.4,0.084,0.761,0.179,1.08,0.285
		c0.319,0.105,0.592,0.237,0.816,0.395c0.225,0.158,0.397,0.349,0.516,0.574c0.119,0.226,0.179,0.506,0.179,0.843
		c0,0.345-0.067,0.643-0.2,0.896c-0.134,0.253-0.32,0.464-0.559,0.632c-0.238,0.169-0.523,0.293-0.853,0.374
		c-0.33,0.081-0.692,0.122-1.086,0.122c-1.158,0-2.16-0.362-3.003-1.086l0.369-0.6c0.134,0.141,0.293,0.274,0.479,0.4
		c0.186,0.126,0.394,0.237,0.622,0.332c0.229,0.094,0.472,0.168,0.732,0.221c0.26,0.052,0.534,0.079,0.822,0.079
		c0.597,0,1.062-0.107,1.396-0.322s0.501-0.539,0.501-0.975c0-0.232-0.048-0.426-0.142-0.585c-0.095-0.158-0.238-0.295-0.427-0.411
		c-0.189-0.116-0.425-0.216-0.706-0.3c-0.281-0.084-0.608-0.169-0.98-0.253c-0.394-0.091-0.737-0.186-1.032-0.285
		c-0.295-0.098-0.545-0.221-0.749-0.369c-0.203-0.147-0.356-0.325-0.458-0.532c-0.102-0.208-0.153-0.462-0.153-0.764
		c0-0.344,0.064-0.652,0.195-0.922c0.13-0.271,0.315-0.496,0.553-0.675c0.239-0.179,0.52-0.316,0.843-0.411
		c0.323-0.095,0.682-0.142,1.075-0.142c0.498,0,0.942,0.075,1.333,0.226c0.39,0.152,0.743,0.364,1.059,0.638L152.63,59.149z
		 M154.654,65.228v-7.481h0.737v7.481H154.654z M160.28,65.281c-0.52,0-0.996-0.106-1.428-0.321s-0.803-0.499-1.111-0.854
		c-0.31-0.354-0.548-0.76-0.717-1.217c-0.169-0.456-0.253-0.924-0.253-1.401c0-0.499,0.09-0.977,0.268-1.433
		c0.179-0.457,0.427-0.861,0.743-1.213c0.316-0.351,0.688-0.63,1.116-0.837c0.429-0.208,0.893-0.311,1.391-0.311
		c0.52,0,0.996,0.111,1.428,0.332c0.432,0.221,0.801,0.511,1.107,0.87c0.305,0.358,0.542,0.764,0.711,1.217
		c0.169,0.454,0.253,0.915,0.253,1.386c0,0.499-0.09,0.977-0.268,1.433c-0.179,0.457-0.425,0.859-0.738,1.207
		c-0.312,0.348-0.683,0.625-1.111,0.833C161.242,65.178,160.779,65.281,160.28,65.281z M157.509,61.488
		c0,0.407,0.067,0.799,0.201,1.175c0.133,0.376,0.322,0.709,0.569,1.001c0.246,0.292,0.538,0.524,0.875,0.695
		c0.337,0.172,0.713,0.258,1.128,0.258c0.422,0,0.804-0.091,1.148-0.274c0.345-0.183,0.636-0.422,0.875-0.717
		c0.239-0.295,0.424-0.629,0.553-1.001c0.13-0.372,0.196-0.752,0.196-1.138c0-0.407-0.069-0.799-0.206-1.175
		c-0.137-0.376-0.328-0.708-0.575-0.996c-0.245-0.287-0.537-0.518-0.874-0.689c-0.338-0.172-0.71-0.258-1.117-0.258
		c-0.422,0-0.804,0.089-1.148,0.268c-0.345,0.179-0.636,0.416-0.875,0.711c-0.239,0.295-0.424,0.629-0.553,1.002
		C157.574,60.722,157.509,61.101,157.509,61.488z M165.918,59.117v6.111h-0.737v-7.481h0.569l4.953,6.227v-6.217h0.737v7.471h-0.643
		L165.918,59.117z M176.002,65.228v-7.481h4.91V58.4h-4.173v2.751h3.519v0.611h-3.519v3.467H176.002z M185.053,65.281
		c-0.52,0-0.996-0.106-1.428-0.321s-0.803-0.499-1.111-0.854c-0.31-0.354-0.548-0.76-0.717-1.217
		c-0.169-0.456-0.253-0.924-0.253-1.401c0-0.499,0.09-0.977,0.268-1.433c0.179-0.457,0.427-0.861,0.743-1.213
		c0.316-0.351,0.688-0.63,1.116-0.837c0.429-0.208,0.893-0.311,1.391-0.311c0.52,0,0.996,0.111,1.428,0.332
		c0.432,0.221,0.801,0.511,1.107,0.87c0.305,0.358,0.542,0.764,0.711,1.217c0.169,0.454,0.253,0.915,0.253,1.386
		c0,0.499-0.09,0.977-0.268,1.433c-0.179,0.457-0.425,0.859-0.738,1.207c-0.312,0.348-0.683,0.625-1.111,0.833
		C186.015,65.178,185.552,65.281,185.053,65.281z M182.281,61.488c0,0.407,0.067,0.799,0.201,1.175
		c0.133,0.376,0.322,0.709,0.569,1.001c0.246,0.292,0.538,0.524,0.875,0.695c0.337,0.172,0.713,0.258,1.128,0.258
		c0.422,0,0.804-0.091,1.148-0.274c0.345-0.183,0.636-0.422,0.875-0.717c0.239-0.295,0.424-0.629,0.553-1.001
		c0.13-0.372,0.196-0.752,0.196-1.138c0-0.407-0.069-0.799-0.206-1.175c-0.137-0.376-0.328-0.708-0.575-0.996
		c-0.245-0.287-0.537-0.518-0.874-0.689c-0.338-0.172-0.71-0.258-1.117-0.258c-0.422,0-0.804,0.089-1.148,0.268
		c-0.345,0.179-0.636,0.416-0.875,0.711c-0.239,0.295-0.424,0.629-0.553,1.002C182.346,60.722,182.281,61.101,182.281,61.488z
		 M189.953,65.228v-7.481h3.161c0.323,0,0.62,0.068,0.89,0.205c0.271,0.137,0.504,0.316,0.701,0.538
		c0.196,0.221,0.349,0.472,0.458,0.753c0.109,0.281,0.164,0.566,0.164,0.854c0,0.274-0.041,0.536-0.122,0.785
		c-0.081,0.25-0.193,0.474-0.337,0.675c-0.144,0.2-0.318,0.369-0.521,0.505c-0.204,0.137-0.432,0.231-0.685,0.28l1.833,2.887h-0.833
		l-1.76-2.76h-2.212v2.76H189.953z M190.69,61.815h2.445c0.217,0,0.416-0.048,0.595-0.142c0.179-0.095,0.332-0.223,0.458-0.385
		c0.127-0.161,0.225-0.344,0.295-0.548c0.07-0.203,0.105-0.418,0.105-0.642s-0.04-0.441-0.121-0.648
		c-0.081-0.208-0.19-0.388-0.327-0.543c-0.137-0.154-0.298-0.277-0.484-0.369c-0.186-0.091-0.382-0.137-0.585-0.137h-2.381V61.815z
		 M199.025,61.435c0-0.449,0.079-0.897,0.238-1.343c0.158-0.447,0.388-0.845,0.689-1.196c0.303-0.352,0.675-0.638,1.117-0.859
		c0.442-0.221,0.945-0.332,1.507-0.332c0.667,0,1.238,0.152,1.712,0.454c0.474,0.302,0.823,0.695,1.049,1.18l-0.58,0.358
		c-0.12-0.246-0.266-0.454-0.437-0.622c-0.172-0.169-0.357-0.306-0.553-0.411c-0.197-0.105-0.4-0.181-0.611-0.227
		c-0.211-0.045-0.418-0.068-0.622-0.068c-0.449,0-0.846,0.091-1.191,0.274c-0.344,0.183-0.634,0.422-0.869,0.717
		c-0.236,0.295-0.413,0.627-0.533,0.996c-0.119,0.369-0.179,0.743-0.179,1.122c0,0.415,0.072,0.812,0.216,1.191
		c0.144,0.379,0.34,0.715,0.59,1.007c0.25,0.292,0.545,0.523,0.885,0.695c0.341,0.172,0.712,0.258,1.112,0.258
		c0.211,0,0.427-0.027,0.648-0.08c0.221-0.052,0.435-0.136,0.642-0.252c0.208-0.117,0.399-0.26,0.575-0.432
		c0.176-0.172,0.323-0.382,0.442-0.627l0.611,0.316c-0.12,0.281-0.288,0.529-0.506,0.743c-0.218,0.214-0.46,0.394-0.727,0.542
		c-0.267,0.147-0.55,0.261-0.848,0.338c-0.299,0.077-0.592,0.116-0.88,0.116c-0.513,0-0.984-0.112-1.412-0.337
		c-0.429-0.226-0.797-0.519-1.106-0.881c-0.31-0.361-0.55-0.773-0.722-1.232C199.111,62.382,199.025,61.913,199.025,61.435z
		 M206.749,65.228v-7.481h3.161c0.323,0,0.62,0.068,0.89,0.205c0.271,0.137,0.504,0.316,0.701,0.538
		c0.196,0.221,0.349,0.472,0.458,0.753c0.109,0.281,0.164,0.566,0.164,0.854c0,0.274-0.041,0.536-0.122,0.785
		c-0.081,0.25-0.193,0.474-0.337,0.675c-0.144,0.2-0.318,0.369-0.521,0.505c-0.204,0.137-0.432,0.231-0.685,0.28l1.833,2.887h-0.833
		l-1.76-2.76h-2.212v2.76H206.749z M207.486,61.815h2.445c0.217,0,0.416-0.048,0.595-0.142c0.179-0.095,0.332-0.223,0.458-0.385
		c0.127-0.161,0.225-0.344,0.295-0.548c0.07-0.203,0.105-0.418,0.105-0.642s-0.04-0.441-0.121-0.648
		c-0.081-0.208-0.19-0.388-0.327-0.543c-0.137-0.154-0.298-0.277-0.484-0.369c-0.186-0.091-0.382-0.137-0.585-0.137h-2.381V61.815z
		 M215.831,57.748h0.622l3.108,7.481h-0.779l-0.97-2.339h-3.361l-0.959,2.339h-0.791L215.831,57.748z M217.644,62.309l-1.508-3.698
		l-1.527,3.698H217.644z M220.637,65.228v-7.481h4.91V58.4h-4.173v2.751h3.519v0.611h-3.519v3.467H220.637z M232.153,58.4h-2.666
		v6.828h-0.737V58.4h-2.666v-0.653h6.069V58.4z"/>
</g>
<g>
	<path d="M136.321,10.708l4.146,11.594l4.102-11.594h3.13l-5.981,15.329h-2.504l-6.023-15.329H136.321z M149.341,26.037V10.708
		h2.979v15.329H149.341z M166.98,13.32h-4.901v12.717h-2.958V13.32h-4.901v-2.612h12.761V13.32z M179.522,23.424v2.613h-10.643
		V10.708h10.449v2.612h-7.47v3.692h6.455v2.418h-6.455v3.994H179.522z M117.419,51.945V41.798l-3.951,7.556h-1.619l-3.951-7.556
		v10.147h-2.979V36.616h3.195l4.534,8.722l4.577-8.722h3.174v15.329H117.419z M127.955,36.616h2.634l5.828,15.329h-3.066
		l-1.424-3.821h-5.355l-1.404,3.821h-3.066L127.955,36.616z M131.386,46.03l-2.115-6.024l-2.202,6.024H131.386z M141.081,42.121
		v9.824h-2.979V36.616h2.31l7.988,10.061v-10.04h2.979v15.308h-2.418L141.081,42.121z M154.576,51.945V36.616h2.979v15.329H154.576z
		 M160.75,51.945V36.616h10.298v2.612h-7.318v3.951h6.087v2.419h-6.087v6.347H160.75z M183.786,49.333v2.612h-10.643V36.616h10.449
		v2.612h-7.47v3.692h6.455v2.418h-6.455v3.994H183.786z M194.927,40.631c-0.101-0.099-0.285-0.236-0.551-0.41
		c-0.267-0.172-0.591-0.342-0.971-0.507c-0.382-0.166-0.795-0.306-1.242-0.421c-0.446-0.115-0.9-0.173-1.361-0.173
		c-0.82,0-1.432,0.152-1.835,0.454c-0.404,0.302-0.605,0.728-0.605,1.274c0,0.316,0.076,0.578,0.227,0.787
		c0.152,0.21,0.371,0.393,0.658,0.551c0.289,0.159,0.651,0.303,1.09,0.432c0.439,0.13,0.947,0.267,1.523,0.411
		c0.748,0.201,1.427,0.417,2.04,0.648c0.611,0.23,1.13,0.518,1.555,0.863c0.424,0.346,0.752,0.759,0.982,1.242
		c0.23,0.483,0.346,1.076,0.346,1.781c0,0.82-0.155,1.522-0.464,2.105c-0.309,0.582-0.726,1.054-1.251,1.414
		c-0.526,0.36-1.13,0.622-1.814,0.788c-0.684,0.165-1.401,0.247-2.149,0.247c-1.151,0-2.288-0.172-3.411-0.518
		c-1.123-0.346-2.129-0.834-3.022-1.469l1.317-2.568c0.13,0.13,0.363,0.298,0.701,0.507c0.338,0.209,0.738,0.418,1.199,0.626
		c0.46,0.21,0.971,0.386,1.533,0.53c0.561,0.143,1.136,0.216,1.727,0.216c1.641,0,2.462-0.525,2.462-1.576
		c0-0.331-0.095-0.611-0.281-0.842c-0.187-0.23-0.454-0.432-0.798-0.605c-0.346-0.172-0.764-0.331-1.253-0.475
		c-0.49-0.143-1.037-0.302-1.641-0.474c-0.735-0.201-1.371-0.422-1.911-0.658c-0.54-0.238-0.99-0.519-1.35-0.843
		c-0.36-0.324-0.629-0.697-0.809-1.123c-0.181-0.424-0.27-0.931-0.27-1.522c0-0.777,0.144-1.467,0.432-2.072
		s0.688-1.108,1.198-1.511c0.511-0.403,1.105-0.709,1.781-0.918c0.677-0.209,1.403-0.313,2.18-0.313c1.08,0,2.074,0.169,2.979,0.507
		c0.907,0.338,1.699,0.738,2.376,1.198L194.927,40.631z M210.386,39.228h-4.901v12.717h-2.958V39.228h-4.901v-2.612h12.761V39.228z"
		/>
	<path d="M89.22,58.4h-2.666v6.828h-0.737V58.4h-2.666v-0.653h6.069V58.4z M93.15,57.8h0.695l1.054,2.656l1.064-2.656h0.706
		l-1.306,3.193l1.433,3.383l2.708-6.628h0.801l-3.172,7.481H96.48l-1.57-3.698l-1.58,3.698h-0.643l-3.161-7.481h0.79l2.719,6.628
		l1.422-3.383L93.15,57.8z M101.358,65.228v-7.481h0.738v7.481H101.358z M109.377,64.133c-0.695,0.766-1.496,1.148-2.403,1.148
		c-0.506,0-0.971-0.108-1.396-0.326c-0.425-0.218-0.794-0.506-1.106-0.864c-0.313-0.358-0.557-0.764-0.732-1.217
		c-0.176-0.454-0.264-0.918-0.264-1.397c0-0.498,0.086-0.976,0.258-1.433c0.172-0.456,0.413-0.858,0.722-1.207
		c0.309-0.347,0.674-0.625,1.096-0.832c0.421-0.208,0.882-0.311,1.38-0.311c0.365,0,0.699,0.04,1.001,0.121
		c0.302,0.081,0.571,0.194,0.806,0.338c0.235,0.144,0.439,0.316,0.611,0.516c0.172,0.2,0.318,0.419,0.437,0.659l-0.569,0.379
		c-0.246-0.464-0.566-0.804-0.959-1.022c-0.394-0.218-0.84-0.327-1.338-0.327c-0.415,0-0.789,0.088-1.122,0.263
		c-0.334,0.176-0.618,0.41-0.853,0.701c-0.236,0.292-0.416,0.625-0.543,1.001c-0.126,0.376-0.19,0.764-0.19,1.164
		c0,0.421,0.072,0.821,0.216,1.201c0.144,0.379,0.343,0.711,0.596,0.996s0.55,0.511,0.891,0.679c0.34,0.169,0.711,0.253,1.111,0.253
		c0.428,0,0.838-0.099,1.228-0.3c0.39-0.2,0.764-0.518,1.122-0.954V62.12h-1.665v-0.569h2.287v3.678h-0.622V64.133z M119.229,64.575
		v0.653h-5.026v-7.481h4.932V58.4h-4.194v2.698h3.656v0.622h-3.656v2.856H119.229z M120.567,57.748l2.455,3.266l2.455-3.266h0.811
		l-2.877,3.793l2.792,3.688h-0.812l-2.371-3.161l-2.371,3.161h-0.833l2.792-3.688l-2.877-3.793H120.567z M132.59,58.4h-2.666v6.828
		h-0.737V58.4h-2.666v-0.653h6.069V58.4z M138.733,64.575v0.653h-5.026v-7.481h4.932V58.4h-4.194v2.698h3.656v0.622h-3.656v2.856
		H138.733z M140.861,59.117v6.111h-0.738v-7.481h0.569l4.953,6.227v-6.217h0.737v7.471h-0.643L140.861,59.117z M152.63,59.149
		c-0.211-0.239-0.491-0.432-0.843-0.58s-0.752-0.221-1.201-0.221c-0.66,0-1.141,0.124-1.443,0.374
		c-0.302,0.25-0.454,0.588-0.454,1.017c0,0.225,0.04,0.409,0.122,0.553c0.081,0.144,0.205,0.268,0.374,0.374
		c0.169,0.105,0.384,0.197,0.648,0.274c0.263,0.077,0.574,0.154,0.932,0.232c0.4,0.084,0.761,0.179,1.08,0.285
		c0.319,0.105,0.592,0.237,0.816,0.395c0.225,0.158,0.397,0.349,0.516,0.574c0.119,0.226,0.179,0.506,0.179,0.843
		c0,0.345-0.067,0.643-0.2,0.896c-0.134,0.253-0.32,0.464-0.559,0.632c-0.238,0.169-0.523,0.293-0.853,0.374
		c-0.33,0.081-0.692,0.122-1.086,0.122c-1.158,0-2.16-0.362-3.003-1.086l0.369-0.6c0.134,0.141,0.293,0.274,0.479,0.4
		c0.186,0.126,0.394,0.237,0.622,0.332c0.229,0.094,0.472,0.168,0.732,0.221c0.26,0.052,0.534,0.079,0.822,0.079
		c0.597,0,1.062-0.107,1.396-0.322s0.501-0.539,0.501-0.975c0-0.232-0.048-0.426-0.142-0.585c-0.095-0.158-0.238-0.295-0.427-0.411
		c-0.189-0.116-0.425-0.216-0.706-0.3c-0.281-0.084-0.608-0.169-0.98-0.253c-0.394-0.091-0.737-0.186-1.032-0.285
		c-0.295-0.098-0.545-0.221-0.749-0.369c-0.203-0.147-0.356-0.325-0.458-0.532c-0.102-0.208-0.153-0.462-0.153-0.764
		c0-0.344,0.064-0.652,0.195-0.922c0.13-0.271,0.315-0.496,0.553-0.675c0.239-0.179,0.52-0.316,0.843-0.411
		c0.323-0.095,0.682-0.142,1.075-0.142c0.498,0,0.942,0.075,1.333,0.226c0.39,0.152,0.743,0.364,1.059,0.638L152.63,59.149z
		 M154.654,65.228v-7.481h0.737v7.481H154.654z M160.28,65.281c-0.52,0-0.996-0.106-1.428-0.321s-0.803-0.499-1.111-0.854
		c-0.31-0.354-0.548-0.76-0.717-1.217c-0.169-0.456-0.253-0.924-0.253-1.401c0-0.499,0.09-0.977,0.268-1.433
		c0.179-0.457,0.427-0.861,0.743-1.213c0.316-0.351,0.688-0.63,1.116-0.837c0.429-0.208,0.893-0.311,1.391-0.311
		c0.52,0,0.996,0.111,1.428,0.332c0.432,0.221,0.801,0.511,1.107,0.87c0.305,0.358,0.542,0.764,0.711,1.217
		c0.169,0.454,0.253,0.915,0.253,1.386c0,0.499-0.09,0.977-0.268,1.433c-0.179,0.457-0.425,0.859-0.738,1.207
		c-0.312,0.348-0.683,0.625-1.111,0.833C161.242,65.178,160.779,65.281,160.28,65.281z M157.509,61.488
		c0,0.407,0.067,0.799,0.201,1.175c0.133,0.376,0.322,0.709,0.569,1.001c0.246,0.292,0.538,0.524,0.875,0.695
		c0.337,0.172,0.713,0.258,1.128,0.258c0.422,0,0.804-0.091,1.148-0.274c0.345-0.183,0.636-0.422,0.875-0.717
		c0.239-0.295,0.424-0.629,0.553-1.001c0.13-0.372,0.196-0.752,0.196-1.138c0-0.407-0.069-0.799-0.206-1.175
		c-0.137-0.376-0.328-0.708-0.575-0.996c-0.245-0.287-0.537-0.518-0.874-0.689c-0.338-0.172-0.71-0.258-1.117-0.258
		c-0.422,0-0.804,0.089-1.148,0.268c-0.345,0.179-0.636,0.416-0.875,0.711c-0.239,0.295-0.424,0.629-0.553,1.002
		C157.574,60.722,157.509,61.101,157.509,61.488z M165.918,59.117v6.111h-0.737v-7.481h0.569l4.953,6.227v-6.217h0.737v7.471h-0.643
		L165.918,59.117z M176.002,65.228v-7.481h4.91V58.4h-4.173v2.751h3.519v0.611h-3.519v3.467H176.002z M185.053,65.281
		c-0.52,0-0.996-0.106-1.428-0.321s-0.803-0.499-1.111-0.854c-0.31-0.354-0.548-0.76-0.717-1.217
		c-0.169-0.456-0.253-0.924-0.253-1.401c0-0.499,0.09-0.977,0.268-1.433c0.179-0.457,0.427-0.861,0.743-1.213
		c0.316-0.351,0.688-0.63,1.116-0.837c0.429-0.208,0.893-0.311,1.391-0.311c0.52,0,0.996,0.111,1.428,0.332
		c0.432,0.221,0.801,0.511,1.107,0.87c0.305,0.358,0.542,0.764,0.711,1.217c0.169,0.454,0.253,0.915,0.253,1.386
		c0,0.499-0.09,0.977-0.268,1.433c-0.179,0.457-0.425,0.859-0.738,1.207c-0.312,0.348-0.683,0.625-1.111,0.833
		C186.015,65.178,185.552,65.281,185.053,65.281z M182.281,61.488c0,0.407,0.067,0.799,0.201,1.175
		c0.133,0.376,0.322,0.709,0.569,1.001c0.246,0.292,0.538,0.524,0.875,0.695c0.337,0.172,0.713,0.258,1.128,0.258
		c0.422,0,0.804-0.091,1.148-0.274c0.345-0.183,0.636-0.422,0.875-0.717c0.239-0.295,0.424-0.629,0.553-1.001
		c0.13-0.372,0.196-0.752,0.196-1.138c0-0.407-0.069-0.799-0.206-1.175c-0.137-0.376-0.328-0.708-0.575-0.996
		c-0.245-0.287-0.537-0.518-0.874-0.689c-0.338-0.172-0.71-0.258-1.117-0.258c-0.422,0-0.804,0.089-1.148,0.268
		c-0.345,0.179-0.636,0.416-0.875,0.711c-0.239,0.295-0.424,0.629-0.553,1.002C182.346,60.722,182.281,61.101,182.281,61.488z
		 M189.953,65.228v-7.481h3.161c0.323,0,0.62,0.068,0.89,0.205c0.271,0.137,0.504,0.316,0.701,0.538
		c0.196,0.221,0.349,0.472,0.458,0.753c0.109,0.281,0.164,0.566,0.164,0.854c0,0.274-0.041,0.536-0.122,0.785
		c-0.081,0.25-0.193,0.474-0.337,0.675c-0.144,0.2-0.318,0.369-0.521,0.505c-0.204,0.137-0.432,0.231-0.685,0.28l1.833,2.887h-0.833
		l-1.76-2.76h-2.212v2.76H189.953z M190.69,61.815h2.445c0.217,0,0.416-0.048,0.595-0.142c0.179-0.095,0.332-0.223,0.458-0.385
		c0.127-0.161,0.225-0.344,0.295-0.548c0.07-0.203,0.105-0.418,0.105-0.642s-0.04-0.441-0.121-0.648
		c-0.081-0.208-0.19-0.388-0.327-0.543c-0.137-0.154-0.298-0.277-0.484-0.369c-0.186-0.091-0.382-0.137-0.585-0.137h-2.381V61.815z
		 M199.025,61.435c0-0.449,0.079-0.897,0.238-1.343c0.158-0.447,0.388-0.845,0.689-1.196c0.303-0.352,0.675-0.638,1.117-0.859
		c0.442-0.221,0.945-0.332,1.507-0.332c0.667,0,1.238,0.152,1.712,0.454c0.474,0.302,0.823,0.695,1.049,1.18l-0.58,0.358
		c-0.12-0.246-0.266-0.454-0.437-0.622c-0.172-0.169-0.357-0.306-0.553-0.411c-0.197-0.105-0.4-0.181-0.611-0.227
		c-0.211-0.045-0.418-0.068-0.622-0.068c-0.449,0-0.846,0.091-1.191,0.274c-0.344,0.183-0.634,0.422-0.869,0.717
		c-0.236,0.295-0.413,0.627-0.533,0.996c-0.119,0.369-0.179,0.743-0.179,1.122c0,0.415,0.072,0.812,0.216,1.191
		c0.144,0.379,0.34,0.715,0.59,1.007c0.25,0.292,0.545,0.523,0.885,0.695c0.341,0.172,0.712,0.258,1.112,0.258
		c0.211,0,0.427-0.027,0.648-0.08c0.221-0.052,0.435-0.136,0.642-0.252c0.208-0.117,0.399-0.26,0.575-0.432
		c0.176-0.172,0.323-0.382,0.442-0.627l0.611,0.316c-0.12,0.281-0.288,0.529-0.506,0.743c-0.218,0.214-0.46,0.394-0.727,0.542
		c-0.267,0.147-0.55,0.261-0.848,0.338c-0.299,0.077-0.592,0.116-0.88,0.116c-0.513,0-0.984-0.112-1.412-0.337
		c-0.429-0.226-0.797-0.519-1.106-0.881c-0.31-0.361-0.55-0.773-0.722-1.232C199.111,62.382,199.025,61.913,199.025,61.435z
		 M206.749,65.228v-7.481h3.161c0.323,0,0.62,0.068,0.89,0.205c0.271,0.137,0.504,0.316,0.701,0.538
		c0.196,0.221,0.349,0.472,0.458,0.753c0.109,0.281,0.164,0.566,0.164,0.854c0,0.274-0.041,0.536-0.122,0.785
		c-0.081,0.25-0.193,0.474-0.337,0.675c-0.144,0.2-0.318,0.369-0.521,0.505c-0.204,0.137-0.432,0.231-0.685,0.28l1.833,2.887h-0.833
		l-1.76-2.76h-2.212v2.76H206.749z M207.486,61.815h2.445c0.217,0,0.416-0.048,0.595-0.142c0.179-0.095,0.332-0.223,0.458-0.385
		c0.127-0.161,0.225-0.344,0.295-0.548c0.07-0.203,0.105-0.418,0.105-0.642s-0.04-0.441-0.121-0.648
		c-0.081-0.208-0.19-0.388-0.327-0.543c-0.137-0.154-0.298-0.277-0.484-0.369c-0.186-0.091-0.382-0.137-0.585-0.137h-2.381V61.815z
		 M215.831,57.748h0.622l3.108,7.481h-0.779l-0.97-2.339h-3.361l-0.959,2.339h-0.791L215.831,57.748z M217.644,62.309l-1.508-3.698
		l-1.527,3.698H217.644z M220.637,65.228v-7.481h4.91V58.4h-4.173v2.751h3.519v0.611h-3.519v3.467H220.637z M232.153,58.4h-2.666
		v6.828h-0.737V58.4h-2.666v-0.653h6.069V58.4z"/>
</g>
</svg>
