<?xml version="1.0" encoding="iso-8859-1"?>
<!-- Generator: Adobe Illustrator 27.0.0, SVG Export Plug-In . SVG Version: 6.00 Build 0)  -->
<svg version="1.1" id="Icon" xmlns="http://www.w3.org/2000/svg" xmlns:xlink="http://www.w3.org/1999/xlink" x="0px" y="0px"
	 viewBox="0 0 99.012 99.012" style="enable-background:new 0 0 99.012 99.012;" xml:space="preserve">
<path id="Background" style="fill:#FFFFFF;" d="M85.526,98H14.474C7.596,98,2,92.404,2,85.526V14.474C2,7.596,7.596,2,14.474,2
	h71.053C92.404,2,98,7.596,98,14.474v71.053C98,92.404,92.404,98,85.526,98z"/>
<path id="Border" style="fill:#8400D1;" d="M85.526,97H14.474C8.147,97,3,91.853,3,85.526V14.474C3,8.147,8.147,3,14.474,3h71.053
	C91.853,3,97,8.147,97,14.474v71.053C97,91.853,91.853,97,85.526,97z M85.526,5H14.474C9.211,5,5,9.211,5,14.474v71.053
	C5,90.79,9.211,95,14.474,95h71.053C90.684,95,95,90.79,95,85.526V14.474C95,9.211,90.79,5,85.526,5"/>
<g>
	<path style="fill:#8400D1;" d="M68.686,15.322l-17.59,31.453c-0.363,0.649-1.296,0.653-1.665,0.007L31.493,15.325
		c-0.402-0.704,0.201-1.557,0.999-1.414l17.609,3.147c0.112,0.02,0.227,0.02,0.34-0.001l17.24-3.142
		C68.476,13.77,69.081,14.616,68.686,15.322z"/>
	<path style="fill:#FFA800;" d="M58.488,9.782l-13.017,2.551c-0.214,0.042-0.372,0.223-0.385,0.441l-0.801,13.523
		c-0.016,0.264,0.185,0.49,0.449,0.505c0.046,0.003,0.091-0.001,0.136-0.011l3.624-0.836c0.339-0.078,0.645,0.22,0.576,0.561
		l-1.077,5.273c-0.072,0.355,0.261,0.658,0.607,0.553l2.239-0.68c0.347-0.105,0.68,0.199,0.607,0.554l-1.711,8.282
		c-0.107,0.518,0.582,0.801,0.869,0.356l0.192-0.297l10.607-21.168c0.178-0.354-0.129-0.759-0.518-0.683l-3.731,0.72
		c-0.35,0.068-0.649-0.259-0.55-0.602l2.435-8.44C59.139,10.04,58.839,9.713,58.488,9.782L58.488,9.782z"/>
	<path style="fill:#8400D1;" d="M22.634,56.764l8.782,24.562l8.69-24.562h6.632l-12.67,32.475h-5.306L16.002,56.764H22.634z
		 M76.698,89.239V67.742l-8.37,16.009h-3.431l-8.37-16.009v21.497h-6.312V56.764h6.769l9.605,18.478l9.697-18.478h6.724v32.475
		H76.698z"/>
</g>
</svg>
