<?xml version="1.0" encoding="iso-8859-1"?>
<!-- Generator: Adobe Illustrator 27.0.0, SVG Export Plug-In . SVG Version: 6.00 Build 0)  -->
<svg version="1.1" id="Icon" xmlns="http://www.w3.org/2000/svg" xmlns:xlink="http://www.w3.org/1999/xlink" x="0px" y="0px"
	 viewBox="0 0 99.012 99.012" style="enable-background:new 0 0 99.012 99.012;" xml:space="preserve">
<path id="Background" style="fill:none;" d="M85.032,97.506H13.98c-6.878,0-12.474-5.596-12.474-12.474V13.98
	c0-6.878,5.596-12.474,12.474-12.474h71.053c6.878,0,12.474,5.596,12.474,12.474v71.053C97.506,91.91,91.91,97.506,85.032,97.506z"
	/>
<path id="Border" style="fill:#FFFFFF;" d="M85.032,96.506H13.98c-6.327,0-11.474-5.147-11.474-11.474V13.98
	c0-6.327,5.147-11.474,11.474-11.474h71.053c6.326,0,11.474,5.147,11.474,11.474v71.053C96.506,91.359,91.359,96.506,85.032,96.506z
	 M85.032,4.506H13.98c-5.263,0-9.474,4.211-9.474,9.474v71.053c0,5.263,4.211,9.474,9.474,9.474h71.053
	c5.158,0,9.474-4.211,9.474-9.474V13.98C94.506,8.717,90.296,4.506,85.032,4.506"/>
<g>
	<path style="opacity:0.5;fill:#FFFFFF;" d="M68.192,14.828l-17.59,31.453c-0.363,0.649-1.296,0.653-1.665,0.007L30.999,14.831
		c-0.402-0.704,0.201-1.557,0.999-1.414l17.609,3.147c0.112,0.02,0.227,0.02,0.34-0.001l17.24-3.142
		C67.982,13.276,68.587,14.122,68.192,14.828z"/>
	<path style="fill:#FFFFFF;" d="M57.994,9.288l-13.017,2.551c-0.214,0.042-0.372,0.223-0.385,0.441l-0.801,13.523
		c-0.016,0.264,0.185,0.49,0.449,0.505c0.046,0.003,0.091-0.001,0.136-0.011L48,25.461c0.339-0.078,0.645,0.22,0.576,0.561
		l-1.077,5.273c-0.072,0.355,0.261,0.658,0.607,0.553l2.239-0.68c0.347-0.105,0.68,0.199,0.607,0.554l-1.711,8.282
		c-0.107,0.518,0.582,0.801,0.869,0.356l0.192-0.297l10.607-21.168c0.178-0.354-0.129-0.759-0.518-0.683l-3.731,0.72
		c-0.35,0.068-0.649-0.259-0.55-0.602l2.435-8.44C58.645,9.546,58.345,9.219,57.994,9.288L57.994,9.288z"/>
	<path style="fill:#FFFFFF;" d="M22.14,56.27l8.782,24.562l8.69-24.562h6.632l-12.67,32.475h-5.306L15.508,56.27H22.14z
		 M76.204,88.745V67.248l-8.37,16.009h-3.431l-8.37-16.009v21.497h-6.312V56.27h6.769l9.605,18.478l9.697-18.478h6.724v32.475
		H76.204z"/>
</g>
</svg>
